<svg width="15" height="15" viewBox="0 0 15 15" fill="none" xmlns="http://www.w3.org/2000/svg">
<path d="M13.1718 1.47181C12.9105 0.89933 12.0943 0.897069 11.8349 1.47044C11.7618 1.63211 11.6323 1.76176 11.4706 1.83488C10.8984 2.09368 10.8984 2.90632 11.4706 3.16512C11.6323 3.23824 11.7618 3.36789 11.8349 3.52956C12.0943 4.10293 12.9105 4.10067 13.1718 3.52819C13.245 3.36772 13.3742 3.23839 13.5348 3.16545C14.1063 2.90589 14.1063 2.09411 13.5348 1.83455C13.3742 1.76161 13.245 1.63228 13.1718 1.47181ZM7.14286 0.714286C3.21429 0.714286 0 3.92857 0 7.85714C0 11.7857 3.21429 15 7.14286 15C11.0714 15 14.2857 11.7857 14.2857 7.85714C14.2857 7.454 14.251 7.05823 14.1851 6.67266C14.0632 5.95908 13.1721 5.93225 12.8699 6.5901C12.7966 6.74985 12.7769 6.92823 12.8022 7.10219C12.8379 7.34786 12.8571 7.5948 12.8571 7.85714C12.8571 11.0214 10.3071 13.5714 7.14286 13.5714C3.97857 13.5714 1.42857 11.0214 1.42857 7.85714C1.42857 7.797 1.46596 7.74331 1.52199 7.72146C2.40444 7.37725 3.20995 6.86082 3.89139 6.20195C4.84306 5.28178 6.61268 5.02238 7.78842 5.63068C8.78285 6.14518 9.90369 6.42857 11.0714 6.42857C11.5463 6.42857 11.8233 5.92923 11.6264 5.49711L11.5362 5.29901C11.4532 5.11689 11.2716 5 11.0714 5C9.38491 5 7.81856 4.24889 6.74973 3.0066C6.45005 2.65828 6.68336 2.14286 7.14286 2.14286C7.40708 2.14286 7.65566 2.1624 7.90017 2.19571C8.06811 2.21859 8.23975 2.19853 8.39431 2.12895C9.05776 1.83027 9.03613 0.936202 8.3189 0.813849C7.936 0.748528 7.54306 0.714286 7.14286 0.714286ZM2.73249 4.22886C3.20892 3.64802 3.80411 4.14515 3.32673 4.72521C2.85224 5.30178 2.25894 4.8062 2.73249 4.22886ZM5 7.67857C4.7632 7.67857 4.5361 7.77264 4.36865 7.94008C4.20121 8.10753 4.10714 8.33463 4.10714 8.57143C4.10714 8.80823 4.20121 9.03533 4.36865 9.20277C4.5361 9.37022 4.7632 9.46429 5 9.46429C5.11725 9.46429 5.23336 9.44119 5.34168 9.39632C5.45001 9.35145 5.54844 9.28568 5.63135 9.20277C5.71425 9.11986 5.78002 9.02144 5.82489 8.91311C5.86976 8.80478 5.89286 8.68868 5.89286 8.57143C5.89286 8.45418 5.86976 8.33807 5.82489 8.22975C5.78002 8.12142 5.71425 8.02299 5.63135 7.94008C5.54844 7.85717 5.45001 7.79141 5.34168 7.74654C5.23336 7.70167 5.11725 7.67857 5 7.67857ZM9.28571 7.67857C9.04891 7.67857 8.82181 7.77264 8.65437 7.94008C8.48693 8.10753 8.39286 8.33463 8.39286 8.57143C8.39286 8.80823 8.48693 9.03533 8.65437 9.20277C8.82181 9.37022 9.04891 9.46429 9.28571 9.46429C9.52252 9.46429 9.74962 9.37022 9.91706 9.20277C10.0845 9.03533 10.1786 8.80823 10.1786 8.57143C10.1786 8.33463 10.0845 8.10753 9.91706 7.94008C9.74962 7.77264 9.52252 7.67857 9.28571 7.67857Z" fill="black"/>
</svg>
