<svg id="图层_1" data-name="图层 1" xmlns="http://www.w3.org/2000/svg" viewBox="0 0 300 302"><defs><style>.cls-1{fill:#2c2c2c;}</style></defs><path class="cls-1" d="M215.82,112.36a11.61,11.61,0,0,0-8.25-3.58H91.26A12.19,12.19,0,0,0,79.14,121V192a12.19,12.19,0,0,0,12.12,12.17H207.57A11.32,11.32,0,0,0,216,200.6,12.76,12.76,0,0,0,219.7,192V121A11.42,11.42,0,0,0,215.82,112.36ZM127.4,157.21a12.54,12.54,0,0,1-3.56,8.48,12.31,12.31,0,0,1-17.13,0,12.54,12.54,0,0,1-3.56-8.48V145a12.39,12.39,0,0,1,3.67-8.48,11.63,11.63,0,0,1,8.46-3.65,12.24,12.24,0,0,1,8.46,3.65A12.43,12.43,0,0,1,127.4,145Zm69.54,0a12.64,12.64,0,0,1-3.56,8.48,12.32,12.32,0,0,1-17.14,0c-2.54-2.3-3.41-5.12-3.52-8.48V145a12,12,0,0,1,20.55-8.48,12.44,12.44,0,0,1,3.67,8.48Z"/><path class="cls-1" d="M150,0C67.16,0,0,67.61,0,151S67.16,302,150,302s150-67.6,150-151S232.84,0,150,0Zm92.25,119.49v74q-.23,14.47-9.62,23.8c-6.25,6.21-14.2,9.46-23.79,9.76h-119c-9.6-.3-17.5-3.59-23.7-9.95S56.66,202.35,56.38,192V119.49a35.3,35.3,0,0,1,9.71-24c6.2-6,14.1-9.26,23.7-9.54h10.67l-9.2-9.44a11.67,11.67,0,0,1,0-15.93,11.61,11.61,0,0,1,15.88,0l26.62,25.37h32l27-25.37a11.42,11.42,0,0,1,8.13-3.14,11.27,11.27,0,0,1,8,19.07l-9.18,9.44H210.3c9.58.28,17.43,3.56,23.49,9.54C239.85,102.09,242.65,110,242.25,119.49Z"/></svg>