<svg id="图层_1" data-name="图层 1" xmlns="http://www.w3.org/2000/svg" viewBox="0 0 300 300"><defs><style>.cls-1{fill:#2c2c2c;fill-rule:evenodd;}</style></defs><path id="gmail-icon-1" class="cls-1" d="M150,0A150,150,0,1,1,0,150H0A150.05,150.05,0,0,1,150,0Zm75.1,90.2L79.5,89.8l72.8,57.82Zm-90,73.54L71.5,113.68v95H228.8v-93l-59,48.2C149.8,180.19,155.79,179.9,135.09,163.74ZM72.3,71.6H229.2a23.06,23.06,0,0,1,23,23v110a23.06,23.06,0,0,1-23,23H72.3a23.07,23.07,0,0,1-23-23V94.6A23.07,23.07,0,0,1,72.3,71.6Z"/></svg>