<svg id="图层_1" data-name="图层 1" xmlns="http://www.w3.org/2000/svg" viewBox="0 0 300 300"><defs><style>.cls-1{fill:#2c2c2c;}</style></defs><path id="路径_15845"  class="cls-1" d="M150,0C67.1,0,0,68.91,0,153.86,0,220,41.33,278.78,102.55,299.72c7.5,1.42,10.25-3.34,10.25-7.4,0-3.67-.14-15.78-.21-28.63C70.85,273,62,245.54,62,245.54A40.58,40.58,0,0,0,45.36,223c-13.61-9.55,1-9.33,1-9.33a31.53,31.53,0,0,1,23,15.84,31.51,31.51,0,0,0,43.34,12.95l.3-.16a33.08,33.08,0,0,1,9.52-20.57c-33.32-3.89-68.34-17.07-68.34-76a60.39,60.39,0,0,1,15.46-41.28,56.57,56.57,0,0,1,1.45-40.71s12.59-4.14,41.26,15.76a138.86,138.86,0,0,1,75.11,0c28.63-19.9,41.2-15.76,41.2-15.76a56.42,56.42,0,0,1,1.47,40.71,60.22,60.22,0,0,1,15.44,41.28c0,59.07-35.08,72.11-68.48,75.88a37.29,37.29,0,0,1,10.17,28.48c0,20.58-.17,37.14-.17,42.21,0,4.08,2.7,8.89,10.3,7.38,78.59-26.87,121-114,94.85-194.57C271.83,42.35,214.51,0,150,0"/><path id="路径_15846" class="cls-1" d="M56.14,219.08c-.33.76-1.51,1-2.57.46s-1.7-1.54-1.35-2.31,1.49-1,2.58-.47,1.71,1.55,1.33,2.32m7.38,6.78c-.71.68-2.12.37-3.06-.71A2.4,2.4,0,0,1,60,222c.74-.68,2.09-.36,3.08.71s1.17,2.55.42,3.2m5.06,8.64c-.92.65-2.42,0-3.35-1.33s-.92-3,0-3.66,2.41-.07,3.35,1.29.92,3,0,3.7m8.57,10c-.83.92-2.58.68-3.86-.59a3,3,0,0,1-.83-3.92c.83-.94,2.59-.67,3.88.58s1.7,3,.83,3.93m11.06,3.39c-.36,1.21-2,1.75-3.75,1.24S81.67,247.2,82,246s2.05-1.79,3.76-1.24,2.8,1.92,2.48,3.14m12.59,1.44c0,1.27-1.4,2.32-3.18,2.34s-3.25-1-3.26-2.23,1.4-2.33,3.2-2.35,3.24,1,3.24,2.24m12.37-.49c.21,1.24-1,2.55-2.8,2.85s-3.35-.44-3.57-1.69,1.05-2.55,2.79-2.87,3.36.42,3.59,1.7"/></svg>