<svg id="图层_1" data-name="图层 1" xmlns="http://www.w3.org/2000/svg" viewBox="0 0 300 300"><defs><style>.cls-1{fill:#2c2c2c;}</style></defs><path class="cls-1" d="M205.08,203.24c-7,0-13.41,8.5-13.41,17.84,0,5.5,3.66,9.83,8.25,9.83,7.91,0,13-12.92,13-20.17A7.5,7.5,0,0,0,205.08,203.24Z"/><path class="cls-1" d="M150,0A150,150,0,1,0,300,150,150,150,0,0,0,150,0Zm-8.41,234.47H88.33a9.2,9.2,0,0,1-9.2-9.19V66.53a9.19,9.19,0,0,1,9.2-9.19H208.16a9.19,9.19,0,0,1,9.2,9.19v93.2H206.61V76.26a9.2,9.2,0,0,0-9.2-9.2H99.23a9.2,9.2,0,0,0-9.2,9.2V214.53a9.2,9.2,0,0,0,9.2,9.19h42.36Zm44-127H115a5.12,5.12,0,0,1,0-10.24h70.65a5.12,5.12,0,0,1,0,10.24Zm5.12,35.83a5.12,5.12,0,0,1-5.12,5.12H115a5.12,5.12,0,1,1,0-10.23h70.65A5.12,5.12,0,0,1,190.74,143.34Zm28,93.32c-5.25,0-8.42-2.17-9.17-6.42-3.83,4.17-7.41,6-11.83,6-7.75,0-13.58-6.58-13.58-15.25,0-12.08,10.25-23.08,21.41-23.08,4.59,0,8.09,2.5,10.17,7.25l1.83-5.5h6.92L217,223a15.44,15.44,0,0,0-1,4.17,4,4,0,0,0,4.17,3.67c7.08,0,14-9.42,14-19.17,0-13.92-13.42-25.58-29.34-25.58-17.58,0-32.75,15.08-32.75,32.58,0,15.92,13.59,28.17,31.25,28.17,4.5,0,9.25-.75,16.09-2.67l2.33,5.58a55,55,0,0,1-18.83,3.5c-21.09,0-37.92-14.83-37.92-33.33a39.57,39.57,0,0,1,10.36-26.39H113.94a5.12,5.12,0,0,1,0-10.24h68.61a5.1,5.1,0,0,1,3.66,1.55,40.5,40.5,0,0,1,19.71-5.17c19.41,0,35.5,14.08,35.5,31C241.42,223.08,233.67,236.66,218.75,236.66Z"/></svg>