<?xml version="1.0" encoding="UTF-8"?>
<svg width="160px" viewBox="0 0 206.38 28.124"
     xmlns="http://www.w3.org/2000/svg">
<path transform="translate(-189.45 -221.97)" d="M189.447,229v14.062l12.178,7.031,12.178-7.031V229l-12.178-7.031Z" fill="#e30c34"/>
<path transform="translate(-217.63 -254.36)" d="m229.8 259.06-8.088 4.67v4.671l4.045-2.336v9.4l4.043 2.331v-14.067l4.043-2.334z" fill="#fff"/>
<path transform="translate(-301.51 -286.67)" d="m317.75 298.39v9.372l4.06-2.344v-9.374z" fill="#fff"/>
<g transform="translate(28.416 7)" fill="#000431">
<rect transform="translate(51.105 .007)" width=".677" height="14.133"/>
<g transform="translate(0 .216)">
<path transform="translate(-413.98 -277.6)" d="M421.119,291.622h-2.886V280h-4.251v-2.4h11.234V280h-4.1Z"/>
<path transform="translate(-500.41 -277.6)" d="m515.63 280h-2.693v-2.4h2.693zm0 11.619h-2.693v-10.385h2.693z"/>
<path transform="translate(-539.45 -277.6)" d="M557.624,277.6h5.483c2.155,0,3.482.481,4.425,1.616a9.329,9.329,0,0,1,0,10.773c-.943,1.135-2.289,1.635-4.425,1.635h-5.483Zm5.483,11.619c2.174,0,3.251-1.52,3.251-4.6,0-3.1-1.077-4.617-3.251-4.617h-2.6v9.215Z"/>
<path transform="translate(-636.98 -277.6)" d="m675.6 291.62h-6.31v-14.022h6.252c3.694 0 4.578 2.4 4.578 3.693 0 1.193-0.539 2-1.924 2.886 1.577 0.923 2.328 2.02 2.328 3.4 5e-3 1.677-0.977 4.043-4.924 4.043zm-3.424-8.445h3.136c1.327 0 2.039-0.558 2.039-1.577 0-1.039-0.712-1.6-2.039-1.6h-3.132zm0 6.04h3.443c1.4 0 2.135-0.635 2.135-1.808 0-1.193-0.731-1.827-2.135-1.827h-3.439z"/>
</g>
<path transform="translate(-825.73 -275.89)" d="M895.6,285.038c-.432,2.709-1.614,3.917-3.831,3.917a4.021,4.021,0,0,1-3.266-1.525,6.567,6.567,0,0,1-1.216-4.126c0-3.532,1.659-5.727,4.329-5.727a3.337,3.337,0,0,1,3.717,2.942l.009.046h1.936l-.012-.068c-.562-3.1-2.341-4.606-5.439-4.606a5.738,5.738,0,0,0-5.148,2.622,9.073,9.073,0,0,0-1.288,4.81,8.909,8.909,0,0,0,1.271,4.731,5.674,5.674,0,0,0,5.088,2.586c3.428,0,5.381-1.88,5.8-5.586l.007-.064h-1.952Z"/>
<path transform="translate(-919.47 -275.89)" d="m999.49 275.89c-4.056 0-6.781 2.964-6.781 7.374s2.733 7.374 6.8 7.374c4 0 6.8-2.985 6.8-7.259-5e-3 -4.549-2.677-7.489-6.819-7.489zm4.923 7.451c0 3.357-1.971 5.612-4.9 5.612s-4.9-2.286-4.9-5.689 1.963-5.689 4.884-5.689c2.983 1e-3 4.915 2.264 4.915 5.766z"/>
<path transform="translate(-1028.4 -277.48)" d="M1124.089,289.748l-4.082-12-.013-.039h-2.57v14.078h1.8V280.375l3.853,11.373.013.039h1.96l3.828-11.408v11.408h1.8V277.708h-2.57Z"/>
<path transform="translate(-1140.2 -277.48)" d="M1252.139,289.748l-4.083-12-.013-.039h-2.569v14.078h1.8V280.374l3.853,11.373.013.039h1.96l3.828-11.408v11.408h1.8V277.708h-2.57Z"/>
<path transform="translate(-1252.1 -277.48)" d="m1382.5 287.57c0 1.859-1.325 2.969-3.544 2.969s-3.505-1.082-3.505-2.969v-9.864h-1.9v9.864c0 2.871 2.07 4.655 5.4 4.655 3.3 0 5.44-1.827 5.44-4.655v-9.864h-1.9z"/>
<path transform="translate(-1347.3 -277.48)" d="M1491.734,288.984l-7.192-11.25-.017-.026H1482.5v14.078h1.8V280.606l7.115,11.154.017.027h2.1V277.708h-1.8Z"/>
<rect transform="translate(149.59 .23)" width="1.916" height="14.078"/>
<path transform="translate(-1473.9 -277.48)" d="m1627.5 279.39h4.6v12.393h1.9v-12.393h4.578v-1.686h-11.078z"/>
<path transform="translate(-1555.2 -277.48)" d="m1730.9 277.71-3.951 6.745-4.049-6.717-0.017-0.028h-2.34l5.43 8.56v5.519h1.9v-5.519l5.294-8.559z"/>
</g>
</svg>
